<?xml version="1.0" encoding="utf-8"?>
<!-- Generator: Adobe Illustrator 27.5.0, SVG Export Plug-In . SVG Version: 6.00 Build 0)  -->
<svg version="1.1" xmlns="http://www.w3.org/2000/svg" xmlns:xlink="http://www.w3.org/1999/xlink" x="0px" y="0px"
	 viewBox="0 0 750 500" style="enable-background:new 0 0 750 500;" xml:space="preserve">
<g id="BACKGROUND">
	<linearGradient id="SVGID_1_" gradientUnits="userSpaceOnUse" x1="375" y1="486.2042" x2="375" y2="160.3987">
		<stop  offset="0" style="stop-color:#EDEAC2"/>
		<stop  offset="0.303" style="stop-color:#A9DAC2"/>
		<stop  offset="1" style="stop-color:#00B1C3"/>
	</linearGradient>
	<rect y="-0.194" style="fill:url(#SVGID_1_);" width="750" height="500"/>
</g>
<g id="OBJECTS">
	<g>
		<path style="fill:#FFFFFF;" d="M211.221,336.247c-52.135-6.878-189.103-2.149-193.367-1.999l-0.082,0.001
			c0.586-0.223,12.23-4.614,14.655-6.125c2.472-1.541,10.595-2.304,10.595-2.304s6.71-10.638,18.825-12.589
			c12.108-1.963,7.796,9.756,7.796,9.756s3.066-4.052,7.05-5.252c3.982-1.19,6.303,2.521,6.303,2.521s3.493-8.192,11.46-10.583
			c7.977-2.388,10.708,10.965,10.708,10.965s7.244-38.058,29.724-41.319c22.48-3.261,16.093,33.405,16.093,33.405
			s13.164-13.369,27.629-9.478s11.189,24.854,11.189,24.854c6.711-2.333,11.627-1.13,15.037,0.986
			C209.323,331.864,211.221,336.247,211.221,336.247z"/>
		<path style="fill:#D3EDEA;" d="M17.854,334.248l36.547-3.804c0,0,1.108-6.498,6.299-4.892c5.194,1.596,5.885,3.748,5.885,3.748
			s1.49-1.245,3.37-0.809c1.89,0.439,5.397,2.444,5.397,2.444s7.709-14.369,18.754-12.328c11.057,2.033,9.277,9.699,9.277,9.699
			s6.875-3.968,8.971-2.691c2.084,1.284,3.789,2.471,3.789,2.471s11.286-38.31,23.842-34.204
			c12.557,4.106,10.149,28.185,10.149,28.185s6.768-5.184,8.035-2.108c1.277,3.079,1.88,5.61,1.88,5.61s10.378-19.057,18.756-12.338
			c8.38,6.709,9.23,18.435,9.23,18.435s9.187-3.134,16.798-2.578c4.488,2.777,6.386,7.16,6.386,7.16
			C159.086,329.369,22.118,334.098,17.854,334.248z"/>
	</g>
	<g>
		<path style="fill:#F2F7F6;" d="M456.394,400.9c-3.853,0-7.44,0.927-10.451,2.518c-0.124-2.53-1.678-4.753-4.026-6.149
			c4.336-2.303,7.207-6.294,7.207-10.835c0-7.133-7.076-12.916-15.805-12.916c-2.53,0-4.919,0.488-7.04,1.352
			c-3.558-8.883-13.777-15.301-25.836-15.301c-15.014,0-27.185,9.946-27.185,22.215c0,1.176,0.114,2.33,0.329,3.457
			c-2.618-1.212-5.641-1.907-8.864-1.907c-9.103,0-16.625,5.518-17.842,12.683c-2.27-0.843-4.79-1.317-7.447-1.317
			c-3.985,0-7.667,1.059-10.65,2.849c-2.41-3.106-6.643-5.174-11.477-5.174c-7.507,0-13.593,4.973-13.593,11.108
			c0,6.134,6.086,11.108,13.593,11.108c1.741,0,3.399-0.277,4.929-0.765c2.29,5.982,9.124,10.322,17.198,10.322
			c6.582,0,12.337-2.885,15.481-7.191c1.679,2.44,4.873,4.091,8.543,4.091c3.272,0,6.161-1.315,7.941-3.329
			c0.675,9.92,10.729,17.795,23.037,17.795c10.313,0,19.044-5.53,22-13.158c2.354,1.137,5.098,1.792,8.03,1.792
			c5.281,0,9.953-2.118,12.823-5.369c1.269,7.698,9.335,13.635,19.104,13.635c10.65,0,19.283-7.055,19.283-15.757
			S467.044,400.9,456.394,400.9z"/>
		<path style="fill:#D3EDEA;" d="M415.533,422.122l0.36-0.929l1.026,0.496c2.281,1.102,4.891,1.684,7.547,1.684
			c4.757,0,9.264-1.887,12.054-5.048l1.391-1.576l0.318,1.926c1.218,7.391,9.027,12.964,18.164,12.964
			c10.109,0,18.334-6.721,18.334-14.982c-19.072,13.725-33.929-0.827-29.398-10.074c-10.326,2.187-11.38-4.65-11.38-4.65
			c-3.793,2.066-8.219,1.55-8.219,1.55c3.161-2.583,5.058-7.233,5.058-7.233c-8.219,7.749-24.024,9.299-24.024,9.299
			c4.426,1.033,10.748,0.517,10.748,0.517s-1.264,9.816-13.277,10.849c-12.012,1.033-16.438-7.233-16.438-7.233
			c-8.219,5.683-15.805,0-15.805,0c-10.115,3.616-13.909-1.033-13.909-1.033c6.954,0,10.748-2.583,10.748-2.583
			c-16.438,2.583-23.392-4.65-23.392-4.65c0,3.1,4.425,5.683,4.425,5.683c-14.541,6.2-22.128-4.65-22.128-4.65
			c-10.273,8.3-20.81,3.995-23.076,1.033c0,5.697,5.672,10.333,12.644,10.333c1.559,0,3.102-0.239,4.585-0.712l0.946-0.301
			l0.303,0.792c2.239,5.849,8.787,9.779,16.293,9.779c5.978,0,11.598-2.611,14.667-6.813l0.839-1.149l0.802,1.166
			c1.569,2.28,4.525,3.696,7.716,3.696c2.826,0,5.508-1.124,7.173-3.008l1.567-1.773l0.148,2.184
			c0.651,9.568,10.354,17.062,22.09,17.062C404.13,434.739,412.608,429.669,415.533,422.122z"/>
		<path style="fill:#FFFFFF;" d="M347.969,398.317c0,0,1.913-14.165,19.278-14.835c-0.825-0.095-1.667-0.147-2.524-0.147
			c-9.103,0-16.625,5.518-17.842,12.683c-2.27-0.843-4.79-1.317-7.447-1.317c-3.698,0-7.126,0.92-9.986,2.482
			C331.729,396.685,342.346,394.641,347.969,398.317z"/>
		<path style="fill:#FFFFFF;" d="M440.799,377.824c0,0-6.071-3.754-14.521-2.953c-3.558-8.883-13.777-15.301-25.836-15.301
			c-15.014,0-27.185,9.946-27.185,22.215c0,1.176,0.114,2.33,0.329,3.457v1.968c0,0-10.656-1.292-10.866,6.802
			c0,0,5.795-6.458,14.225-3.1c0,0,5.901-13.088,21.917-14.035c0,0-6.428-1.55-13.909,1.119c0,0,14.541-11.71,33.718,0.431
			c0,0-8.43-0.086-9.799,5.769c0,0,7.481-6.286,17.597-2.497C426.469,381.698,431.105,376.188,440.799,377.824z"/>
		<path style="fill:#FFFFFF;" d="M473.615,409.569c-3.175-5.141-9.692-8.67-17.221-8.67c-3.853,0-7.44,0.927-10.451,2.518
			C445.943,403.418,463.023,399.652,473.615,409.569z"/>
	</g>
	<g>
		<path style="fill:#F2F7F6;" d="M530.032,337.734c0,0-0.928,0.031-2.615,0.085c-0.008,0-0.008,0-0.016,0
			c-15.161,0.449-91.262,2.646-103.298,1.075c-13.39-1.74-23.283-3.783-35.791-4.069c-12.516-0.294-60.243,0.286-61.991-1.168
			c-1.253-1.044,17.977-3.899,29.51-5.74c0.039-0.008,0.085-0.008,0.124-0.016c4.44-0.712,7.72-1.269,8.199-1.516
			c1.748-0.874,2.908-6.405,7.565-3.496c0,0-3.783-12.508,11.348-13.97c0,0-7.287-10.799-1.547-19.563
			c0.433-0.665,0.951-1.323,1.547-1.965c8.439-9.027,22.123,0.286,22.123,0.286s2.034-9.6,12.802-10.188
			c10.768-0.58,11.928,11.062,11.928,11.062s6.699-1.454,9.027,3.783c0,0,0-9.6,16.004-10.474
			c16.004-0.874,14.256,15.424,14.256,15.424s8.045,0.766,11.858,5.871c0.882,1.183,1.547,2.607,1.818,4.309
			c1.416,8.772-5.415,13.413-5.802,13.676c0.588-0.108,16.345-3.032,19.485,5.531C499.763,335.405,530.032,337.734,530.032,337.734z
			"/>
		<path style="fill:#D3EDEA;" d="M527.402,337.819c-15.161,0.449-91.262,2.646-103.298,1.075c-13.39-1.74-23.283-3.783-35.791-4.069
			c-12.516-0.294-60.243,0.286-61.991-1.168c-1.253-1.044,17.977-3.899,29.51-5.74c0.039-0.008,0.085-0.008,0.124-0.016
			c13.498-1.245,27.522-2.483,31.421-0.619c8.045,3.86,11.402-12.237,22.301-12.075c10.907,0.17,11.572,10.234,11.572,10.234
			s14.929-9.731,16.94-4.363c2.019,5.368,4.533,9.894,9.058,7.047c4.533-2.854,17.443-15.262,19.795-6.706
			c2.344,8.548,30.856,13.916,41.926,14.759C514.747,336.612,521.887,337.277,527.402,337.819z"/>
		<path style="fill:#FFFFFF;" d="M467.043,299.111c0,0,0.333-17.281-13.081-15.765c-13.421,1.508-13.924,14.086-13.924,14.086
			c-2.684-8.385-12.075-6.544-12.075-6.544s-0.17-11.735-10.404-10.567c-10.226,1.176-12.075,10.567-12.075,10.567
			c-11.131-6.242-19.037-4.479-23.964-1.532c0.433-0.665,0.951-1.323,1.547-1.965c8.439-9.027,22.123,0.286,22.123,0.286
			s2.034-9.6,12.802-10.188c10.768-0.58,11.928,11.062,11.928,11.062s6.699-1.454,9.027,3.783c0,0,0-9.6,16.004-10.474
			c16.004-0.874,14.256,15.424,14.256,15.424s8.045,0.766,11.858,5.871C475.505,299.421,467.043,299.111,467.043,299.111z"/>
		<path style="fill:#FFFFFF;" d="M395.592,315.546c0,0,2.348-8.889,9.392-10.063s9.392,1.677,9.392,1.677s2.684-6.541,8.051-6.709
			c5.367-0.168,8.722,3.354,8.722,3.354s-2.013-6.877-10.063-6.206c-8.051,0.671-8.722,5.535-8.722,5.535s-9.728-4.025-14.592,1.342
			C392.908,309.843,395.592,315.546,395.592,315.546z"/>
	</g>
	<g>
		<path style="fill:#F2F7F6;" d="M224.132,235.425c0,0-59.7,2.106-68.643,1.846c-8.935-0.269-47.333-1.057-56.537-1.317
			c-9.203-0.26-74.423,1.577-74.423,1.577l22.878-4.732c-0.269-11.838,14.195-15.781,14.195-15.781
			c-0.884-8.874,3.18-12.86,7.626-14.602c4.784-1.881,10.001-1.179,10.001-1.179s-2.739-6.456-0.737-13.112
			c1.447-4.827,5.399-9.749,14.671-12.401c22.089-6.309,22.618,18.415,22.618,18.415c16.829-3.423,17.886,14.723,17.886,14.723
			c8.649-1.872,12.314,5.425,13.016,7.054c0.017,0.043,0.035,0.087,0.052,0.121c0.026,0.061,0.052,0.121,0.078,0.191
			c8.155-2.894,11.309,6.049,12.626,8.943c1.308,2.894,20.512,1.049,27.61,2.626c7.097,1.577,4.472,4.212,5.789,5
			c1.248,0.754,28.485,2.452,31.093,2.617C224.062,235.425,224.132,235.425,224.132,235.425z"/>
		<path style="fill:#D3EDEA;" d="M224.132,235.425c0,0-59.7,2.106-68.643,1.846c-8.935-0.269-47.333-1.057-56.537-1.317
			c-9.203-0.26-74.423,1.577-74.423,1.577l22.878-4.732c-0.269-11.838,14.195-15.781,14.195-15.781
			c-0.884-8.874,3.18-12.86,7.626-14.602c5.442,5.382,17.999,6.413,13.415,12.756c-6.837,9.472,17.098-1.577,25.512,8.423
			c8.415,9.992,17.886,0.26,29.975-1.057c12.098-1.317,14.472,5,15.521,8.155c1.014,3.059,66.208,4.628,70.281,4.723
			C224.062,235.425,224.132,235.425,224.132,235.425z"/>
		<path style="fill:#FFFFFF;" d="M146.736,216.04c-3.276-7.461-16.535-4.55-16.535-4.55s0.503-11.777-9.454-13.432
			c-9.948-1.655-17.245,7.297-17.245,7.297c1.984-10.286,8.623-9.948,8.623-9.948s-1.326-20.235-19.238-16.587
			c-7.765,1.586-12.046,5.442-14.394,9.307c1.447-4.827,5.399-9.749,14.671-12.401c22.089-6.309,22.618,18.415,22.618,18.415
			c16.829-3.423,17.886,14.723,17.886,14.723C142.568,206.94,146.19,214.714,146.736,216.04z"/>
	</g>
	<g>
		<path style="fill:#FFFFFF;" d="M374.913,148.673c0,0,2.935-3.913,0-6.652c-2.935-2.739-11.544-1.956-11.544-1.956
			s3.13-5.478-5.674-6.261c-8.804-0.783-20.152,5.87-20.152,5.87s-3.13-8.804-14.087-9.978c-10.957-1.174-24.848,5.94-24.848,5.94
			s-16.043-9.462-44.022-6.723c-21.969,2.151-53.212,17.56-58.757,25.295c-1.903,2.654-3.494,5.906-3.017,9.224
			c0.236,1.641,0.888,3.114,1.749,4.477c-3.971,0.516-7.893,1.314-11.552,3.03c-4.375,2.052-8.303,5.64-10.21,10.141
			c-1.015,2.395-1.672,5.152-1.211,7.757c0.514,2.902,2.448,4.565,4.791,6.12c4.43,2.94,9.405,4.963,14.523,6.352
			c5.875,1.593,24.85,1.393,29.447,0.583c8.609-1.516,16.239-7.239,16.239-7.239s0.587,1.761,15.261,1.565
			c14.674-0.196,43.239-25.826,43.239-25.826s0.391,3.913,8.609,6.065c8.217,2.152,15.261-3.913,15.261-3.913
			s0.587,2.348,11.543,2.543c10.957,0.196,23.87-14.283,23.87-14.283s6.456,1.37,15.065,1.761
			c8.609,0.391,23.087-1.761,22.696-8.804C391.739,146.717,374.913,148.673,374.913,148.673z"/>
		<path style="fill:#D3EDEA;" d="M370.519,162.598c0.09,0.002,0.181,0.003,0.271,0.004c0.35,0.005,0.705,0.007,1.068,0.004
			c0.025,0,0.05,0,0.075,0c0.395-0.004,0.799-0.014,1.206-0.027c0.079-0.003,0.159-0.006,0.239-0.009
			c0.375-0.014,0.753-0.032,1.135-0.055c0.039-0.002,0.077-0.004,0.115-0.006c0.431-0.027,0.865-0.059,1.302-0.097
			c0.048-0.004,0.096-0.009,0.144-0.013c0.415-0.037,0.832-0.079,1.249-0.126c0.029-0.003,0.059-0.006,0.088-0.01
			c0.458-0.053,0.916-0.111,1.373-0.177c0.002,0,0.004-0.001,0.005-0.001c0.453-0.065,0.905-0.137,1.354-0.216
			c0.018-0.003,0.037-0.006,0.056-0.01c0.911-0.16,1.809-0.348,2.678-0.565c0.007-0.002,0.015-0.004,0.022-0.005
			c0.875-0.219,1.721-0.468,2.522-0.749c0.001,0,0.002-0.001,0.003-0.001c1.608-0.564,3.034-1.254,4.154-2.086
			c-3.261,0.7-7.552,1.253-12.905,1.177c-13.696-0.196-19.957-6.457-19.957-6.457s-8.052,13.107-17.217,16.63
			c-9.165,3.524-18.196-1.37-18.196-1.37s-5.576,6.221-14.087,5.087c-8.511-1.134-11.543-10.174-11.543-10.174
			s-25.239,23.283-36.391,27.196c-11.152,3.913-16.239-9-16.239-9s-5.495,9.717-17.217,11.543
			c-41.396,6.449-52.354,3.074-53.317-11.275c-0.842,2.216-1.336,4.681-0.921,7.025c0.514,2.902,2.448,4.565,4.791,6.12
			c4.43,2.94,9.405,4.963,14.523,6.352c5.875,1.593,24.85,1.393,29.447,0.583c8.609-1.516,16.239-7.239,16.239-7.239l0,0l0,0
			c0,0,0.253,0.758,4.574,1.224c2.263,0.244,5.643,0.408,10.687,0.341c14.674-0.196,43.239-25.826,43.239-25.826
			s0.014,0.138,0.09,0.375c0.332,1.03,1.842,3.941,8.518,5.69c3.595,0.942,6.966,0.31,9.62-0.698
			c0.758-0.288,1.458-0.607,2.088-0.928c0.63-0.322,1.19-0.646,1.669-0.946c1.197-0.749,1.884-1.341,1.884-1.341
			s0.277,1.11,4.011,1.867c0.339,0.069,0.707,0.135,1.106,0.197c0.199,0.031,0.407,0.061,0.622,0.09
			c1.507,0.202,3.407,0.347,5.804,0.39c3.082,0.055,6.318-1.051,9.378-2.669c1.02-0.539,2.021-1.135,2.989-1.765
			c0.646-0.419,1.277-0.853,1.891-1.295c5.525-3.974,9.611-8.555,9.611-8.555s1.236,0.262,3.347,0.59
			c0.603,0.094,1.278,0.193,2.016,0.292c0.369,0.05,0.753,0.1,1.153,0.15c2.396,0.298,5.322,0.582,8.55,0.729
			C369.786,162.581,370.15,162.591,370.519,162.598z"/>
		<path style="fill:#D3EDEA;" d="M237.565,150.63c0,0,9.391-8.413,21.913-7.044c12.522,1.37,11.739,11.739,11.739,11.739
			s12.326-8.804,21.326-7.435c9,1.37,9.587,3.717,9.587,3.717s2.543-7.043,7.435-6.261c4.891,0.783,4.5,4.033,4.5,4.033
			s1.761-6.381-4.304-6.968c-6.065-0.587-9.29,4.5-9.29,4.5s-4.797-3.131-13.21-3.326c-8.413-0.196-14.478,3.326-14.478,3.326
			s-6.065-7.826-14.478-8.413C249.891,137.912,237.565,150.63,237.565,150.63z"/>
	</g>
	<g>
		<path style="fill:#FFFFFF;" d="M726.255,351.489l-38.924,1.417c0,0-28.306,0.708-45.295,1.417
			c-16.719,0.695-42.351,6.193-43.151,6.362l22.277-7.779c0,0-36.803,4.246-51.31,5.307c-14.507,1.06-49.185,13.447-56.616,13.803
			c-4.53,0.215-12.341,3.19-17.752,5.48c-0.005,0-0.009,0.005-0.014,0.005c-3.327,1.408-5.741,2.555-5.928,2.646
			c0.471-0.293,13.483-8.195,16.262-11.673c2.829-3.538,9.201-3.181,9.201-3.181s0-12.034,7.784-14.864
			c7.784-2.829,11.678,7.432,11.678,7.432s1.769-3.186,3.538-4.955c1.769-1.769,3.894,0,3.894,0s-2.125-2.829,1.769-6.015
			c3.89-3.186,10.969,4.598,10.969,4.598c0-3.186,4.246-2.829,4.246-2.829c-7.08-3.538-18.401-26.542-5.306-37.155
			c13.09-10.618,24.06,18.401,24.06,18.401s1.769-2.477,5.306-3.186c3.414-0.681,1.239,9.475,1.074,10.22
			c0.178-0.599,2.221-7.528,4.589-10.576c2.477-3.181,8.492,1.773,8.492,1.773s-3.89-11.326,4.603-24.773
			c8.492-13.447,23.351-10.97,32.552-3.89c7.596,5.841,3.858,23.013,2.322,28.832c-0.311,1.161-0.526,1.869-0.549,1.947
			c0.046-0.05,0.352-0.407,0.987-0.942c0.964-0.814,2.688-2.057,5.38-3.3c4.598-2.121,6.723,4.598,6.723,4.598
			s1.06-4.95,4.246-7.427c3.186-2.477,7.784,0,7.784,0s12.03-33.617,29.014-33.974c16.989-0.352,13.447,10.97,12.386,23.712
			c-0.366,4.379-2.153,8.593-4.315,12.277c-4.118,7.034-9.598,12.149-9.132,12.843c0.708,1.065,7.08-2.121,15.572-1.769
			C713.165,336.629,726.255,351.489,726.255,351.489z"/>
		<path style="fill:#D3EDEA;" d="M726.255,351.489l-38.924,1.417c0,0-28.306,0.708-45.295,1.417
			c-16.719,0.695-42.351,6.193-43.151,6.362l22.277-7.779c0,0-36.803,4.246-51.31,5.307c-14.507,1.06-49.185,13.447-56.616,13.803
			c-4.53,0.215-12.341,3.19-17.752,5.48c5.069-2.879,10.645-5.887,13.506-6.897c6.015-2.125,15.568-5.307,15.568-5.307
			s-4.955-6.371,1.769-5.311c6.723,1.065,9.909,3.894,9.909,3.894s1.769-4.246,7.784-6.371c6.015-2.121,12.386-2.121,13.447-1.769
			c1.06,0.357,15.216-3.538,15.216-3.538s-20.522-8.844-12.738-15.568c7.784-6.723,16.633-7.08,24.064,0.352
			c7.427,7.432,8.844,11.678,8.844,11.678s1.417-9.201,7.08-7.432c5.658,1.769,8.844,5.306,8.844,5.306s3.186-31.844,15.924-28.662
			c6.39,1.6,9.932,6.225,11.875,10.435c0.155,0.338,0.302,0.676,0.439,1.006c1.545,3.771,1.842,6.961,1.842,6.961
			s8.844-4.955,13.09-2.477c4.246,2.477,9.909,8.849,9.909,8.849s-1.06-11.326,12.03-15.924c13.095-4.603,21.231-5.306,22.999-2.477
			c0.187,0.302,0.658,0.622,1.348,0.955c-4.118,7.034-9.598,12.149-9.132,12.843c0.708,1.065,7.08-2.121,15.572-1.769
			C713.165,336.629,726.255,351.489,726.255,351.489z"/>
	</g>
	<g>
		<path style="fill:#FFFFFF;" d="M736.904,161.06c-0.078,0.039-0.212,0.062-0.399,0.079c-3.433,0.232-25.345-3.714-73.034-4.998
			c-31.22-0.845-75.621,0.032-104.813,0.818c-17.838,0.481-30.002,0.929-30.002,0.929l34.987-11.75c0,0-15.328,1.244-31.283-1.122
			c-1.392-0.211-2.784-0.443-4.176-0.708c-17.352-3.304-102.64,9.609-102.64,9.609s8.316-7.28,14.105-10.788
			c5.794-3.51,11.826-0.226,19.367-0.213c7.548,0.015,4.29-5.272,10.837-9.79c6.55-4.514,16.598,0.537,16.598,0.537
			s1.271-6.285,8.823-10.043s13.821,5.056,13.821,5.056s-2.235-6.536,1.653-13.572c0.876-1.588,2.066-3.208,3.665-4.777
			c8.534-8.384,26.312,6.841,26.887,7.334c-0.493-0.62-17.315-22.266,15.698-46.735c33.497-24.835,38.881,52.889,40.134,55.408
			c2.468,4.96,11.321-2.49,11.321-2.49s2.534-8.801,9.332-14.066c6.8-5.271,10.788,14.105,10.788,14.105s8.095-24.128,16.651-27.131
			c8.561-3.005,11.576-1.989,22.882,4.318c11.304,6.314,15.091,0.032,22.865,10.612c7.778,10.578-9.359,27.894-9.359,27.894
			s18.866-1.219,35.199,5.102C733.151,150.995,736.904,161.06,736.904,161.06z"/>
		<path style="fill:#E4F2F0;" d="M587.117,139.478c-0.529,0.047-17.405,1.482-26.318,1.79c-5.939,0.207-19.457,2.206-28.438,3.748
			c-1.392-0.211-2.784-0.443-4.176-0.708c-17.352-3.304-102.64,9.609-102.64,9.609s8.316-7.28,14.105-10.788
			c5.794-3.51,11.826-0.226,19.367-0.213c7.548,0.015,4.29-5.272,10.837-9.79c6.55-4.514,16.598,0.537,16.598,0.537
			s1.271-6.285,8.823-10.043s13.821,5.056,13.821,5.056s-2.235-6.536,1.653-13.572c7.073,4.714,7.377,15.229,9.161,14.682
			c2.184-0.665-1.493-7.208,9.917-12.053c11.412-4.84,17.254,9.422,17.254,9.422c-0.167-1.172-0.302-17.435,10.107-25.129
			c10.411-7.69,13.568,7.908,18.572,22.171C580.627,138.077,586.793,139.413,587.117,139.478z"/>
		<path style="fill:#D3EDEA;" d="M736.506,161.14c-3.433,0.232-25.345-3.714-73.034-4.998c-31.22-0.845-75.621,0.032-104.813,0.818
			c12.665-4.181,30.992-9.909,37.844-10.424c10.733-0.802,20.647-1.608,20.957-1.638c-0.385-0.1-14.28-3.805-5.505-10.238
			c8.899-6.521,19.963-3.647,19.963-3.647l8.362,10.076c0,0-8.837-25.337,11.446-23.286c20.014,2.023,15.011,24.245,14.878,24.836
			c0.213-0.236,6.772-7.426,10.059-1.646c3.343,5.872,4.174,8.39,4.174,8.39s14.268-6.677,23.48-1.633
			c9.21,5.051,10.885,6.733,12.396,7.236C717.759,155.338,729.089,158.604,736.506,161.14z"/>
	</g>
	<g>
		<path style="fill:#F7F8F9;" d="M43.353,105.343h208.924c0,0-0.919-4.29-18.074-2.145c0,0-5.514-12.56-14.399-12.254
			c-8.884,0.306-10.721,5.821-10.721,5.821s-1.839-3.677-3.37-3.37c-1.532,0.306-1.532,7.658-1.532,7.658
			s-6.434-14.091-15.316-4.901c0,0-5.514-34.616-23.589-35.229c-18.074-0.613-15.01,14.704-15.01,14.704s-1.532-10.722-4.902-8.884
			c-3.37,1.838,0.613,8.272,0.613,8.272s-15.929-15.642-23.282,8.108c0,0-3.983-48.24-29.716-37.518
			c-25.733,10.722-9.189,38.599-9.189,38.599s-3.064-7.045-7.353-3.983c-4.289,3.064,11.029,17.769,11.029,17.769
			s-18.38-17.769-19.3,2.144C68.167,100.135,48.867,76.854,43.353,105.343z"/>
		<g>
			<path style="fill:#E2F1F2;" d="M151.537,81.079c-0.382-1.45-0.658-2.387-0.658-2.387S151.092,79.614,151.537,81.079z"/>
			<path style="fill:#D3EDEA;" d="M234.204,103.198c0,0-5.514-12.56-14.399-12.254c-8.884,0.306-10.721,5.821-10.721,5.821
				s-1.839-3.677-3.37-3.37c-1.532,0.306-1.532,7.658-1.532,7.658s-1.224-2.681-3.342-4.941l0,0
				c3.091,5.167-3.704,9.231-10.137,7.086c-6.434-2.145-5.055-11.793-5.055-11.793s-1.99,11.488-15.776,10.754
				c-11.024-0.587-16.558-15.232-18.335-21.08c1.326,5.031,3.931,16.265,0.72,16.146c-4.135-0.153-5.208-10.416-5.208-10.416
				c0.46,7.506-3.217,15.93-15.623,15.317c-12.407-0.612-11.029-11.334-11.029-11.334c-10.165,19.679-29.409,0.919-32.931-15.317
				c-3.524-16.237,3.063-26.346,13.478-28.796c9.425-2.218,15.311,10.7,16.345,13.177c-4.245-10.512-11.64-19.528-24.311-14.25
				c-22.298,9.292-12.853,31.461-9.936,37.213c-1.158-1.878-3.575-4.761-6.606-2.596c-4.289,3.064,11.029,17.769,11.029,17.769
				s-18.38-17.769-19.3,2.144c0,0-19.3-23.282-24.813,5.208h208.924C252.278,105.343,251.359,101.054,234.204,103.198z"/>
		</g>
		<g>
			<path style="fill:#E2F1F2;" d="M103.94,105.343c-0.906-1.073-2.267-2.664-3.888-4.489c1.141,1.557,2.376,3.059,3.704,4.489
				H103.94z"/>
		</g>
		<path style="fill:#F7F8F9;" d="M234.204,103.198c0,0-5.514-12.56-14.399-12.254c-5.813,0.201-8.609,2.631-9.848,4.287
			c0.002-0.002,7.289-7.112,14.794-2.057c4.939,3.326,7.357,8.809,8.434,12.169h19.092
			C252.278,105.343,251.359,101.054,234.204,103.198z"/>
		<path style="fill:#F7F8F9;" d="M227.412,99.479c-0.681,0.927-2.89,0.462-4.935-1.04c-2.043-1.502-3.147-3.472-2.466-4.4
			c0.682-0.928,2.892-0.462,4.936,1.04C226.989,96.582,228.094,98.551,227.412,99.479z"/>
		<g>
			<path style="fill:#F7F8F9;" d="M86.766,97.347c-3.366-3.001-17.787-14.792-18.599,2.789c0,0-19.3-23.282-24.813,5.208h4.07
				c0.034-3.423,0.662-12.437,6.296-13.242c6.97-0.995,15.777,10.799,15.777,10.799s-1.149-9.692,3.37-10.858
				c4.518-1.165,11.104,3.123,17.308,8.944C90.175,100.985,88.72,99.508,86.766,97.347z"/>
			<path style="fill:#F7F8F9;" d="M96.426,44.485c-1.103,0.254-2.251,0.624-3.447,1.122c-22.298,9.292-12.853,31.461-9.936,37.213
				c-1.158-1.878-3.575-4.761-6.606-2.596c-3.576,2.555,6.473,13.195,9.913,16.664c-4.277-4.768-10.495-12.351-9.579-15.201
				c1.378-4.289,7.735,3.982,7.735,3.982S69.144,54,96.426,44.485z"/>
		</g>
	</g>
	<g>
		<path style="fill:#E4F2F0;" d="M714.467,217.449c-1.018,0-2.003,0.13-2.952,0.354c-2.551-7.682-9.781-13.229-18.319-13.229
			c-3.352,0-6.502,0.856-9.25,2.358c-1.32-2.64-4.042-4.457-7.194-4.457c-4.069,0-7.423,3.022-7.962,6.942
			c-2.574-1.892-5.742-3.024-9.181-3.024c-4.497,0-8.536,1.923-11.373,4.977c-1.272-2.77-4.063-4.698-7.31-4.698
			c-2.242,0-4.268,0.919-5.728,2.398c-3.905-7.336-11.622-12.334-20.512-12.334c-12.071,0-21.986,9.209-23.118,20.983
			c-0.85-0.177-1.73-0.271-2.632-0.271c-7.111,0-12.875,5.764-12.875,12.875c0,7.111,5.764,12.875,12.875,12.875h125.532
			c7.111,0,12.875-5.764,12.875-12.875C727.342,223.213,721.577,217.449,714.467,217.449z"/>
		<path style="fill:#FFFFFF;" d="M588.935,221.511c0.902,0,1.782,0.095,2.632,0.271c1.131-11.775,11.046-20.983,23.118-20.983
			c8.89,0,16.607,4.998,20.512,12.334c1.459-1.479,3.485-2.398,5.728-2.398c3.247,0,6.038,1.928,7.31,4.698
			c2.837-3.055,6.875-4.977,11.373-4.977c3.44,0,6.607,1.131,9.181,3.024c0.54-3.92,3.894-6.942,7.962-6.942
			c3.152,0,5.874,1.817,7.194,4.457c2.747-1.502,5.898-2.358,9.25-2.358c8.538,0,15.769,5.547,18.319,13.229
			c0.95-0.223,1.935-0.354,2.952-0.354c6.418,0,11.723,4.701,12.7,10.844c0.105-0.663,0.176-1.338,0.176-2.031
			c0-7.111-5.764-12.875-12.875-12.875c-1.018,0-2.003,0.13-2.952,0.354c-2.551-7.682-9.781-13.229-18.319-13.229
			c-3.352,0-6.503,0.856-9.25,2.358c-1.32-2.64-4.042-4.457-7.194-4.457c-4.068,0-7.423,3.022-7.962,6.942
			c-2.574-1.892-5.742-3.024-9.181-3.024c-4.497,0-8.536,1.923-11.373,4.977c-1.272-2.77-4.063-4.698-7.31-4.698
			c-2.242,0-4.268,0.919-5.728,2.398c-3.905-7.336-11.622-12.334-20.512-12.334c-12.071,0-21.986,9.209-23.118,20.983
			c-0.85-0.177-1.73-0.271-2.632-0.271c-7.111,0-12.875,5.764-12.875,12.875c0,0.693,0.07,1.368,0.176,2.031
			C577.211,226.212,582.517,221.511,588.935,221.511z"/>
		<g>
			<path style="fill:#FFFFFF;" d="M709.599,218.091c0.622-0.146,1.264-0.233,1.916-0.289c-1.678-5.299-5.396-8.362-6.834-9.431
				C705.458,209.632,709.396,214.546,709.599,218.091z"/>
			
				<linearGradient id="SVGID_00000079485487873609400570000018114933551423662757_" gradientUnits="userSpaceOnUse" x1="632.143" y1="201.7788" x2="632.143" y2="209.5093">
				<stop  offset="0" style="stop-color:#FFFFFF"/>
				<stop  offset="0.3878" style="stop-color:#FDFDFD"/>
				<stop  offset="0.6137" style="stop-color:#F4F4F4"/>
				<stop  offset="0.7981" style="stop-color:#E6E6E6"/>
				<stop  offset="0.9592" style="stop-color:#D2D2D2"/>
				<stop  offset="1" style="stop-color:#CCCCCC"/>
			</linearGradient>
			<path style="fill:url(#SVGID_00000079485487873609400570000018114933551423662757_);" d="M635.197,209.071
				c-2.523-4.702-5.527-6.853-6.108-7.314c0.415,0.625,3.23,3.431,5.601,7.781C634.852,209.374,635.022,209.22,635.197,209.071z"/>
			<path style="fill:#D3EDEA;" d="M721.081,219.292c0.836,1.707,1.318,3.618,1.318,5.647c0,7.111-5.764,12.875-12.875,12.875
				H583.992c-2.422,0-4.679-0.681-6.614-1.844c2.094,4.276,6.475,7.228,11.557,7.228h125.532c7.111,0,12.875-5.764,12.875-12.875
				C727.342,225.635,724.827,221.544,721.081,219.292z"/>
		</g>
		<path style="fill:#FFFFFF;" d="M586.212,226.87c-2.652,2.175-5.845,2.668-7.132,1.099c-1.286-1.568-0.179-4.603,2.473-6.779
			c2.652-2.175,5.845-2.668,7.132-1.099C589.972,221.659,588.864,224.694,586.212,226.87z"/>
		<path style="fill:#FFFFFF;" d="M655.981,213.838c-2.461,0.997-4.933,0.625-5.523-0.83s0.928-3.442,3.389-4.439
			c2.461-0.997,4.933-0.625,5.523,0.83C659.959,210.854,658.442,212.842,655.981,213.838z"/>
		<path style="fill:#FFFFFF;" d="M675.254,208.124c-1.368,1.368-3.133,1.821-3.942,1.012c-0.809-0.809-0.356-2.574,1.012-3.942
			c1.368-1.368,3.133-1.821,3.942-1.012C677.075,204.992,676.622,206.757,675.254,208.124z"/>
		<path style="fill:#FFFFFF;" d="M607.181,210.876c-4.28,3.511-9.058,4.763-10.671,2.796c-1.613-1.966,0.549-6.407,4.83-9.917
			s9.058-4.763,10.671-2.796C613.623,202.925,611.461,207.365,607.181,210.876z"/>
	</g>
	<g id="XMLID_2249_">
		<path style="fill:#E4F2F0;" d="M482.628,82.879c-4.002-9.242-11.264-10.302-16.823-9.476c-0.899-8.075-7.348-14.474-15.448-15.289
			c-0.674-11.234-9.994-20.137-21.396-20.137c-5.669,0-10.821,2.204-14.654,5.797c-4.686-3.631-10.563-5.797-16.95-5.797
			c-8.989,0-16.974,4.284-22.036,10.917c-0.715-0.101-1.444-0.156-2.187-0.156c-5.79,0-10.835,3.176-13.498,7.878
			c-4.382-2.736-9.555-4.322-15.101-4.322c-11.07,0-20.663,6.303-25.403,15.511c-1.003-0.291-2.062-0.45-3.158-0.45
			c-3.806,0-7.165,1.886-9.215,4.768c-0.121,1.071-0.587,2.076-1.452,2.813c-0.409,1.169-0.642,2.42-0.642,3.728
			c0,0.104,0.005,0.207,0.008,0.311c-0.003,0-0.005,0-0.008,0c-0.043,0-0.085,0-0.128,0c-3.05,0.023-5.93,1.336-8.174,3.402
			c-7.61,7.008-12.418,28.731,8.302,31.225c8.844,1.065,16.241-6.728,17.203-15.378c5.221,6.803,13.429,11.193,22.667,11.193
			c15.774,0,28.561-12.787,28.561-28.561c0-0.372-0.014-0.741-0.028-1.11c0.022,0,0.044,0.002,0.066,0.002
			c0.117,0,0.232-0.006,0.348-0.009c4.819,8.168,13.704,13.651,23.875,13.651c6.877,0,13.164-2.511,18.008-6.659
			c1.978,3.29,5.581,5.492,9.699,5.492c4.355,0,8.133-2.463,10.022-6.071c3.173,3.961,8.047,6.501,13.518,6.501
			c3.387,0,6.544-0.976,9.213-2.657c13.115,0.723,37.161,1.443,37.161-3.009C494.977,80.866,482.628,82.879,482.628,82.879z"/>
		<path style="fill:#FFFFFF;" d="M482.628,82.879c-4.002-9.242-11.264-10.302-16.823-9.476c-0.899-8.075-7.348-14.474-15.448-15.289
			c-0.674-11.234-9.994-20.137-21.396-20.137c-5.669,0-10.821,2.204-14.654,5.797c-4.686-3.631-10.563-5.797-16.95-5.797
			c-8.989,0-16.974,4.284-22.036,10.917c-0.715-0.101-1.444-0.156-2.187-0.156c-5.79,0-10.835,3.176-13.498,7.878
			c-4.382-2.736-9.555-4.322-15.101-4.322c-11.07,0-20.663,6.303-25.403,15.511c-1.003-0.291-2.062-0.45-3.158-0.45
			c-3.806,0-7.165,1.886-9.215,4.768c-0.421,1.089-0.972,1.701-1.452,2.813c-0.409,1.169-0.642,2.42-0.642,3.728
			c0,0.104,0.005,0.207,0.008,0.311c-0.003,0-0.005,0-0.008,0c-0.408,0-0.813,0.014-1.214,0.043
			c-2.578,0.182-4.958,1.38-6.849,3.142c-0.237,0.221-0.479,0.439-0.723,0.655c1.595-0.635,15.346-5.7,25.217,4.172
			c0,0-4.431-9.497-11.169-9.497c0,0,8.27-14.091,25.728-3.218c0,0-3.675-8.116-11.026-8.116c0,0,14.089-19.296,37.06-4.288
			c0,0,5.896-17.249,28.522-5.715c0,0-2.795-5.535-11.371-7.414c0,0,20.073-13.258,37.578,4.247c0,0,21.534-18.096,31.641,5.041
			c0,0,15.356,6.341,12.558,19.155c0,0,17.458-1.838,17.458,7.044c0,0,13.055-0.486,16.85,3.116c0.028-0.013,0.016-0.007,0.044-0.02
			C495.422,80.794,482.628,82.879,482.628,82.879z"/>
	</g>
	<g id="XMLID_4_">
		<path id="XMLID_7_" style="fill:#E4F2F0;" d="M542.048,234.187h-0.1c0,0-0.006,0-0.013,0H409.237l16.9-8.137
			c0,0,0-0.006-0.006-0.013c-9.376-11.893-4.369-27.272,11.273-24.142c15.648,3.13,14.397,10.015,14.397,10.015
			c7.173-2.391,12.156-0.764,14.109,0.144c0.601,0.275,0.914,0.482,0.914,0.482s2.41-4.82,7.01-8.92c0,0,0.006,0,0.013-0.006
			c4.776-4.256,11.905-7.724,21.144-4.219c18.152,6.885,12.519,18.778,12.519,18.778c16.274,0,14.397,9.389,14.397,9.389
			l19.955,6.566L542.048,234.187z"/>
		<path id="XMLID_6_" style="fill:#FFFFFF;" d="M465.91,212.053c-8.362-1.847-15.36,3.981-15.36,3.981s-5.633-10.015-17.526-8.763
			c-11.724,1.233-7.023,18.284-6.892,18.765c-9.376-11.893-4.369-27.272,11.273-24.142c15.648,3.13,14.397,10.015,14.397,10.015
			C458.974,209.518,463.957,211.146,465.91,212.053z"/>
		<path id="XMLID_5_" style="fill:#FFFFFF;" d="M516.898,231.057c0,0,1.252-5.007-4.381-7.511
			c-5.634-2.504-11.267,1.252-11.267,1.252c2.504-7.511-1.252-13.145-8.763-20.03c-7.367-6.754-18.221-1.371-18.64-1.158
			c4.776-4.256,11.905-7.724,21.144-4.219c18.152,6.885,12.519,18.778,12.519,18.778c16.274,0,14.397,9.389,14.397,9.389
			l19.955,6.566c0.013,0.025,0.031,0.044,0.044,0.05C540.74,233.967,516.898,231.057,516.898,231.057z"/>
	</g>
	<g>
		<g>
			<path style="fill:#FFFFFF;" d="M351.553,278.181c8.473-2.392,6.713-18.546,0.459-24.744c-3.333-3.303-8.684-4.12-13.102-2.54
				c-4.418,1.58-7.884,5.284-9.808,9.564c5.798-7.091,6.24-18.055,1.033-25.59c-5.207-7.535-15.62-10.998-24.302-8.081
				c-11.804,3.965-17.801,17.318-19.152,29.696c-0.045-6.106-8.631-9.255-13.805-6.012c-5.174,3.243-6.876,10.14-6.236,16.213
				c-2.745-4.888-9.735-6.791-14.579-3.968c-4.844,2.823-6.635,9.842-3.735,14.64C248.327,277.359,302.611,291.995,351.553,278.181z
				"/>
		</g>
		<g>
			<path style="fill:#F2F7F6;" d="M297.768,275.475c-5.563,0.004-11.128,0.11-16.721,0.409c-1.165,0.062-2.33,0.128-3.495,0.192
				c-6.591,0.162-13.182,0.279-19.775,0.344c-2.17-3.705-0.745-8.842,3.118-10.903c3.974-2.12,9.772-0.582,12.092,3.209
				c-0.593-4.679,0.74-9.968,4.982-12.408c4.242-2.44,11.372,0.074,11.475,4.772c0.985-9.51,5.8-19.72,15.515-22.645
				c7.146-2.151,15.79,0.624,20.174,6.477c3.554,4.745,4.062,11.183,1.615,16.325c1.533-1.758,3.507-3.16,5.809-3.901
				c3.635-1.169,8.067-0.483,10.857,2.094c3.45,3.187,5.332,9.679,4.217,14.237C331.008,274.217,314.389,274.908,297.768,275.475z"
				/>
		</g>
		<g>
			<path style="fill:#D3EDEA;" d="M355.357,275.418c-0.915,1.32-2.166,2.301-3.804,2.763c-44.129,12.456-92.595,1.782-101.701-0.437
				C285,275.727,320.211,273.106,355.357,275.418z"/>
		</g>
		<g>
			<path style="fill:#FFFFFF;" d="M304.225,249.775c17.605-3.352,35.761-5.044,53.81-5.016c2.476,0.004,6-0.772,5.486-2.45
				c-0.163-0.531-0.753-0.935-1.37-1.256c-3.793-1.976-9.681-1.747-13.392,0.52c1.595-2.237-1.286-5.073-4.8-5.082
				c-3.514-0.01-6.626,2.316-7.004,4.77c-3.547-0.32-4.934-3.215-6.188-5.534c-1.253-2.319-4.557-4.827-7.782-3.616
				c-1.903,0.714-2.558,2.373-2.951,3.843c-0.69,2.582-1.192,5.182-1.503,7.789c-1.693-2.135-5.994-2.981-9.199-1.808
				c-3.205,1.173-4.797,4.175-3.406,6.42L304.225,249.775z"/>
		</g>
		<g>
			<path style="fill:#FFFFFF;" d="M283.358,243.977c-1.566-0.282-1.13-2.717,0.438-2.434
				C285.362,241.826,284.926,244.26,283.358,243.977L283.358,243.977z"/>
		</g>
		<g>
			<path style="fill:#FFFFFF;" d="M228.224,265.102c0.71-0.796,1.685-1.445,2.841-1.799c2.965-0.906,6.617,0.266,7.811,2.507
				c0.625-2.548,1.416-5.076,2.369-7.57c0.543-1.42,1.341-3.006,3.104-3.562c2.987-0.942,5.541,1.793,6.325,4.18
				c0.784,2.388,1.608,5.354,4.67,5.948c0.662-2.393,3.702-4.444,6.778-4.159c3.076,0.285,5.215,3.311,3.516,5.393
				c3.556-1.947,8.743-1.711,11.797,0.537c0.497,0.365,0.959,0.81,1.03,1.347c0.224,1.697-2.967,2.186-5.135,1.988
				c-14.551-1.33-29.376-1.208-44.023,0.321C228.642,268.62,228.224,266.914,228.224,265.102z"/>
		</g>
		<g>
			<path style="fill:#FFFFFF;" d="M235.712,259.938c-1.566-0.282-1.13-2.716,0.438-2.434
				C237.716,257.786,237.28,260.221,235.712,259.938L235.712,259.938z"/>
		</g>
		<g>
			<path style="fill:#FFFFFF;" d="M334.6,234.907c-1.566-0.282-1.13-2.717,0.438-2.434
				C336.604,232.755,336.168,235.19,334.6,234.907L334.6,234.907z"/>
		</g>
		<g>
			<path style="fill:#FFFFFF;" d="M328.552,231.381c-0.11-0.158-0.219-0.315-0.329-0.473c-0.381-0.548-0.238-1.34,0.31-1.721
				c0.55-0.382,1.339-0.24,1.721,0.31c0.11,0.158,0.219,0.315,0.329,0.473c0.381,0.548,0.238,1.34-0.31,1.721
				C329.723,232.073,328.935,231.931,328.552,231.381L328.552,231.381z"/>
		</g>
	</g>
	<g>
		<defs>
			<rect id="SVGID_00000104686825676388825940000015234713793915301551_" y="-0.194" width="750" height="500"/>
		</defs>
		<clipPath id="SVGID_00000109717208388763285710000002940477310485253788_">
			<use xlink:href="#SVGID_00000104686825676388825940000015234713793915301551_"  style="overflow:visible;"/>
		</clipPath>
		<g style="clip-path:url(#SVGID_00000109717208388763285710000002940477310485253788_);">
			<path style="fill:#F2F7F6;" d="M348.79,501.035c-5.223-4.563-8.082-8.082-8.082-8.082s-5.773,5.195-10.596-3.892
				c-4.823-9.087-4.99-12.272-4.99-12.272s-2.309-6.927-6.35-11.546c-4.041-4.618-22.514,5.773-22.514,5.773
				s4.618-12.7,1.155-17.896c-3.464-5.196-10.391-3.464-10.391-3.464s2.886-9.236-1.732-15.586c-4.618-6.35-12.7-3.464-12.7-3.464
				s13.277-58.305-32.328-78.51c-45.605-20.205-38.677,43.296-38.677,43.296c-27.709-1.732-8.082,32.905-8.082,32.905
				c-11.546-4.041-11.546,5.773-11.546,5.773s0-4.618-2.886-6.927c-2.886-2.309-6.35,0.577-6.35,0.577s9.236-29.441-19.05-28.286
				c-28.287,1.155-8.082,20.782-8.082,20.782c-19.627,0.577-6.927,13.855-6.927,13.855c-8.659-4.041-11.546,4.618-11.546,4.618
				s-1.155-9.236-14.432-10.391c-13.277-1.155-10.968,10.968-10.968,10.968c-1.209-1.868-2.312-3.294-3.308-4.384
				c-0.254-2.405-0.66-5.279-1.311-8.317c-1.732-8.082-9.236-4.618-9.236-4.618s3.464-8.082-8.659-28.287
				c-12.123-20.205-35.791,0.577-35.791,0.577c-39.832,28.287-5.195,58.305-5.195,58.305c-67.541-3.464-59.459,54.264-59.459,54.264
				l408.135,4.041C386.89,510.849,354.013,505.597,348.79,501.035z"/>
			<g>
				<path style="fill:#D3EDEA;" d="M308.534,476.072c0,0,7.188-4.043,13.577-5.964c-0.922-1.656-2.04-3.379-3.34-4.865
					c-1.372-1.568-4.41-1.404-7.822-0.505C310.686,470.15,308.534,476.072,308.534,476.072z"/>
				<path style="fill:#D3EDEA;" d="M346.033,498.526c-0.876-0.831-1.646-1.594-2.313-2.276
					C344.491,497.289,345.271,498.023,346.033,498.526z"/>
				<path style="fill:#D3EDEA;" d="M361.066,506.09c1.763,1.54,6.677,3.157,12.412,4.625l13.412,0.133
					c0,0-15.196-2.428-26.568-5.417C360.566,505.649,360.811,505.868,361.066,506.09z"/>
				<path style="fill:#D3EDEA;" d="M286.091,435.336c-0.239-0.431-0.503-0.855-0.802-1.265c-0.029-0.039-0.061-0.069-0.09-0.108
					c-0.197,1.094-0.334,1.7-0.334,1.7S285.333,435.499,286.091,435.336z"/>
				<path style="fill:#D3EDEA;" d="M109.374,431.622c0.651,3.038,1.057,5.912,1.311,8.317c0.996,1.089,2.099,2.516,3.308,4.384
					c0,0-2.226-11.736,10.366-11.004c-2.047-2.26-5.583-4.491-11.674-5.021c-1.802-0.157-3.307-0.062-4.58,0.206
					C108.644,429.276,109.088,430.29,109.374,431.622z"/>
				<path style="fill:#D3EDEA;" d="M50.491,457.599c0,0-34.637-30.018,5.195-58.305c0,0,10.248-8.997,20.711-9.395
					c-12.625-13.536-32.988,4.339-32.988,4.339c-39.832,28.287-5.195,58.305-5.195,58.305
					c-67.541-3.464-59.459,54.264-59.459,54.264l11.98,0.119C-9.423,493.034-4.875,454.76,50.491,457.599z"/>
				<path style="fill:#D3EDEA;" d="M130.221,434.385c8.339,2.725,9.171,9.36,9.171,9.36s2.886-8.659,11.546-4.618
					c0,0-12.7-13.277,6.927-13.855c0,0-20.205-19.627,8.082-20.782c1.388-0.057,2.66-0.02,3.872,0.064
					c-3.045-3.272-8.057-5.45-16.149-5.12c-28.287,1.155-8.082,20.782-8.082,20.782c-19.627,0.577-6.927,13.855-6.927,13.855
					C134.766,432.253,132.042,433.007,130.221,434.385z"/>
				<path style="fill:#D3EDEA;" d="M186.065,427.715c-0.427,2.999-1.069,5.061-1.069,5.061s3.464-2.886,6.35-0.577
					c2.886,2.309,2.886,6.927,2.886,6.927s0-9.814,11.546-5.773c0,0-19.628-34.637,8.082-32.905c0,0-6.117-56.114,31.041-46.049
					c-1.477-0.811-3.017-1.583-4.639-2.302c-45.605-20.205-38.677,43.296-38.677,43.296c-27.709-1.732-8.082,32.905-8.082,32.905
					C190.135,427.119,187.755,427.124,186.065,427.715z"/>
			</g>
			<path style="fill:#FFFFFF;" d="M119.92,476.52c0,0,3.088-11.652,18.313-5.215c15.226,6.437,21.201,12.597,21.201,12.597
				s15.616,0.649,22.577,1.578c6.961,0.929,19.823,5.71,19.823,5.71s-6.2-13.083,10.607-11.318c0,0-3.297-12.6,6.531-12.341
				c9.827,0.259,11.075,3.106,11.075,3.106s7.554-16.417,29.797-7.32c0,0-3.334-13.754,14.125-9.699
				c0,0-22.658-39.696,10.248-40.185c32.906-0.49,23.999,45.428,23.999,45.428s8.318-10.666,13.81-1.603
				c5.492,9.063-3.29,23.21-3.29,23.21s7.351-4.859,13.289,0.147c5.938,5.006,7.95,13.604,7.95,13.604s9.955-13.607,24.473-11.19
				c14.518,2.417,18.875,12.095,18.875,12.095s4.987-6.515,10.925-1.51s10.61,6.587,10.61,6.587s13.679-5.642,17.905-0.003
				c4.226,5.639,7.469,12.953,7.469,12.953l-345.501,0.323c0,0-0.412-12.693,13.919-16.046c14.331-3.353,20.79-0.097,20.79-0.097
				S105.143,483.93,119.92,476.52z"/>
			<g>
				<path style="fill:#D3EDEA;" d="M161.168,483.979c13.673,4.849,19.369,9.805,19.369,9.805s15.615-0.67,22.63-0.33
					c7.015,0.339,20.234,4.019,20.234,4.019s-7.281-12.514,9.615-12.172c0,0-4.347-12.277,5.467-12.847
					c9.814-0.57,11.297,2.162,11.297,2.162s6.143-16.995,29.074-9.805c0,0-4.481-13.424,13.257-10.855
					c0,0-22.028-31.989,0.18-39.545c-2.363-0.672-5.039-1.024-8.074-0.978c-32.906,0.49-10.248,40.185-10.248,40.185
					c-17.459-4.054-14.125,9.699-14.125,9.699c-22.243-9.097-29.797,7.32-29.797,7.32s-1.248-2.847-11.075-3.106
					c-9.827-0.259-6.531,12.341-6.531,12.341c-16.807-1.765-10.607,11.318-10.607,11.318s-12.862-4.781-19.823-5.71
					C176.463,484.739,165.422,484.177,161.168,483.979z"/>
				<path style="fill:#D3EDEA;" d="M121.108,512.383c13.997-4.549,20.708-1.849,20.708-1.849s-15.375-12.146-1.275-20.775
					c0,0,2.095-11.87,17.809-6.74c0.069,0.023,0.131,0.046,0.201,0.068c-2.14-1.869-8.373-6.733-20.316-11.783
					c-15.226-6.437-18.313,5.215-18.313,5.215c-14.777,7.41-0.48,20.808-0.48,20.808s-6.459-3.256-20.79,0.097
					c-14.331,3.353-13.919,16.046-13.919,16.046l33.693-0.031C119.25,513.055,120.138,512.698,121.108,512.383z"/>
			</g>
		</g>
		<g id="XMLID_2236_" style="clip-path:url(#SVGID_00000109717208388763285710000002940477310485253788_);">
			<path id="XMLID_2238_" style="fill:#D3EDEA;" d="M763.154,356.292V519.09H630.61l-17.557,21.564L427.56,527.259
				c0,0,24.437-101.529,111.044-69.324c0,0,5.807-17.104,30.588-17.104c0,0,23.186-58.764,73.77-50.121
				c50.584,8.643,47.826,38.948,47.826,38.948s10.712-28.308,34.069-28.308C724.856,401.351,732.214,362.041,763.154,356.292z"/>
			<path id="XMLID_2237_" style="fill:#FFFFFF;" d="M763.154,374.33v-18.037c-30.94,5.749-38.298,45.059-38.298,45.059
				c-23.357,0-34.069,28.308-34.069,28.308s2.758-30.305-47.826-38.948c-50.584-8.643-73.77,50.121-73.77,50.121
				c-24.78,0-30.588,17.104-30.588,17.104c-86.607-32.205-111.044,69.324-111.044,69.324l4.184,0.302l0,0
				c17.394-59.526,108.813-64.262,108.813-64.262c19.91-23.264,56.018-8.949,56.018-8.949c-5.058,5.058-4.979,8.949-4.979,8.949
				c14.092-14.092,34.01-2.63,34.01-2.63c-6.439-13.667-23.335-8.265-23.335-8.265c-12.186-12.186-29.564-10.771-29.564-10.771
				s18.826-44.906,57.904-44.906c39.079,0,54.149,36.762,54.149,36.762c-9.552,0-17.665,12.048-17.665,12.048
				c19.919-15.131,45.975,0,45.975,0c-2.44-7.81-18.758-12.048-18.758-12.048c19.802-35.477,58.783-17.238,58.783-17.238
				c-5.369-12.691-20.012-13.796-20.012-13.796C737.182,387.549,752.69,378.716,763.154,374.33z"/>
		</g>
	</g>
</g>
</svg>
